PathFileType	4	(X/Y/Z)	Walk3.trc
DataRate	CameraRate	NumFrames	NumMarkers	Units	OrigDataRate	OrigDataStartFrame	OrigNumFrames
200.000000	200.000000	5	56	mm	200.000000	780	821
Frame#	Times		LWRR		RLFC		RBHD		RTH3		C7		RMFC		RToe		LElbow		RTB2		RMT1		RMT5		RTB3		LMT5		LWRU		LUA1		LCAR		RCAL		LACR1		RMMAL		RFA1		LASI		LLFC		LTH3		LTB2		LPSI		LCAL		LMMAL		LToe		RPSI		RLMAL		LLMAL		RUA1		LTH2		RFHD		RWRU		RBack		LBHD		LTH4		LMFC		LTB1		RCAR		LTH1		LTB3		RTH2		LTB4		LMT1		RElbow		RTH1		RTH4		RTB4		LFHD		RASI		RACR1		RWRR		T10		RTB1
			X1	Y1	Z1	X2	Y2	Z2	X3	Y3	Z3	X4	Y4	Z4	X5	Y5	Z5	X6	Y6	Z6	X7	Y7	Z7	X8	Y8	Z8	X9	Y9	Z9	X10	Y10	Z10	X11	Y11	Z11	X12	Y12	Z12	X13	Y13	Z13	X14	Y14	Z14	X15	Y15	Z15	X16	Y16	Z16	X17	Y17	Z17	X18	Y18	Z18	X19	Y19	Z19	X20	Y20	Z20	X21	Y21	Z21	X22	Y22	Z22	X23	Y23	Z23	X24	Y24	Z24	X25	Y25	Z25	X26	Y26	Z26	X27	Y27	Z27	X28	Y28	Z28	X29	Y29	Z29	X30	Y30	Z30	X31	Y31	Z31	X32	Y32	Z32	X33	Y33	Z33	X34	Y34	Z34	X35	Y35	Z35	X36	Y36	Z36	X37	Y37	Z37	X38	Y38	Z38	X39	Y39	Z39	X40	Y40	Z40	X41	Y41	Z41	X42	Y42	Z42	X43	Y43	Z43	X44	Y44	Z44	X45	Y45	Z45	X46	Y46	Z46	X47	Y47	Z47	X48	Y48	Z48	X49	Y49	Z49	X50	Y50	Z50	X51	Y51	Z51	X52	Y52	Z52	X53	Y53	Z53	X54	Y54	Z54	X55	Y55	Z55	X56	Y56	Z56

780	3.9	749.77	813.04	-307.98	847.99	543.55	130.42	673.59	1614	-97.819	836.22	586.31	132.37	645.97	1482	-30.68	833.35	512.68	2.1233	813.37	69.788	104.62	667.42	1081.7	-307.8	781.05	326.49	123.01	767.99	62.55	63.415	728.49	73.331	134.66	741.24	246.03	49.819	782.2	22.559	-117.9	823.65	803.91	-299.77	710.25	1216.8	-271.31	693.03	943.13	-312.69	573.69	121.65	42.807	737.77	1420.7	-198.96	665.02	137.96	27.344	671.32	938.75	261.94	758.91	1035.5	-170.62	735.85	514.62	-130.81	743.27	577.98	-141.29	748.9	295.34	-112.6	568.49	1039.6	-53.352	601.4	35.826	-42.51	688.96	69.336	-7.2724	872.66	34.281	-57.616	564.29	1039.9	15.454	634.75	147.66	103.81	666.77	59.921	-90.052	721.17	1256.3	214.45	799.01	680.19	-124.16	848.67	1657.7	-67.614	768.12	846.71	217.52	630.19	1377.6	125.04	675.41	1607.6	39.346	738.25	670.5	-163.94	722.03	495.67	-3.8762	771.77	387.36	-43.507	755.42	798.46	263.91	732.26	761.14	-183.75	731.33	206.51	-39.482	863.23	701.21	111.66	750.77	297.24	-40.581	820.9	30.055	-34.342	643.25	1098	256.69	758.87	764.6	192.7	805.79	675.15	150.89	794.16	320.05	46.018	849.49	1656.1	7.4041	754.57	1001.6	134.41	759.96	1434.4	126.13	689.67	818.71	231.59	577.47	1224.8	-20.505	847.95	402.71	49.434
781	3.905	758.76	813.76	-308.19	854.8	544.54	130.11	678.13	1614.3	-98.147	842.69	587.37	132.18	650.43	1482.1	-31.008	840.09	513.47	1.9014	831.57	69.175	104.21	673.89	1081.7	-308.47	792.5	325.55	122.59	786.16	61.384	62.978	746.26	70.962	134.14	754.81	244.19	49.334	782.19	22.565	-117.93	832.74	805.38	-299.91	715.85	1217	-271.76	700.73	943.33	-313.08	590.32	115.78	42.279	742.24	1421	-199.25	681.3	134.22	26.919	675.24	939.03	261.31	763.55	1035.8	-170.85	737.57	514.48	-130.93	745.44	577.88	-141.43	749.7	295.07	-112.67	573.2	1039.8	-53.338	601.41	35.832	-42.442	688.98	69.323	-7.2378	872.75	34.12	-57.753	569.13	1040.1	15.482	650.69	143.05	103.34	666.79	59.927	-90.005	725.42	1256.6	214.04	801.85	679.68	-124.16	853.22	1657.9	-67.862	772.11	846.98	217.08	634.64	1377.8	124.65	679.89	1607.8	38.989	741.13	670.43	-164.06	723.56	495.6	-4.0887	772.96	387.02	-43.608	759.23	798.69	263.39	735.8	761.1	-183.83	731.85	206.34	-39.499	869.02	702.34	111.26	751.6	296.95	-40.619	820.89	30.07	-34.407	647.27	1098.3	256.11	765.48	764.61	191.7	811.82	675.97	150.76	805.87	319.5	45.513	853.99	1656.3	7.1567	759.56	1001.9	134.18	764.4	1434.7	125.84	693.6	819.02	230.88	582.16	1224.8	-20.697	857.5	403.49	49.088
782	3.91	767.72	814.47	-308.38	861.44	545.44	129.81	682.67	1614.5	-98.469	849.02	588.35	132.02	654.91	1482.3	-31.312	846.61	514.14	1.705	849.85	68.587	103.84	680.35	1081.6	-309.15	803.92	324.58	122.19	804.43	60.256	62.577	764.14	68.641	133.65	768.45	242.35	48.876	782.18	22.571	-117.96	841.79	806.83	-300.03	721.43	1217.2	-272.23	708.41	943.51	-313.48	607.18	109.95	41.74	746.73	1421.3	-199.54	697.76	130.51	26.496	679.2	939.27	260.7	768.17	1036	-171.09	739.31	514.33	-131.05	747.65	577.78	-141.55	750.5	294.8	-112.73	577.91	1039.9	-53.319	601.44	35.833	-42.371	689.01	69.302	-7.1933	872.84	33.953	-57.887	573.96	1040.2	15.512	666.8	138.46	102.88	666.81	59.934	-89.958	729.7	1256.9	213.67	804.68	679.18	-124.09	857.78	1658.1	-68.102	776.13	847.22	216.64	639.12	1378	124.3	684.38	1608	38.637	744.04	670.34	-164.17	725.03	495.53	-4.2626	774.15	386.68	-43.7	763.08	798.88	262.86	739.36	761.04	-183.91	732.37	206.17	-39.503	874.72	703.36	110.83	752.44	296.67	-40.649	820.89	30.086	-34.467	651.32	1098.6	255.57	772.06	764.56	190.48	817.75	676.71	150.61	817.5	318.91	45.096	858.49	1656.5	6.9176	764.55	1002	133.98	768.88	1435	125.58	697.57	819.3	230.18	586.85	1224.9	-20.86	866.9	404.21	48.778
783	3.915	776.66	815.16	-308.54	867.91	546.23	129.51	687.23	1614.6	-98.784	855.21	589.25	131.9	659.42	1482.3	-31.594	852.93	514.66	1.5329	868.21	68.037	103.52	686.8	1081.5	-309.84	815.31	323.6	121.82	822.78	59.175	62.218	782.12	66.384	133.17	782.13	240.53	48.449	782.17	22.576	-117.99	850.81	808.26	-300.11	726.98	1217.3	-272.7	716.09	943.65	-313.89	624.28	104.18	41.186	751.22	1421.5	-199.81	714.39	126.84	26.077	683.22	939.47	260.12	772.77	1036.2	-171.34	741.05	514.17	-131.16	749.91	577.67	-141.65	751.31	294.52	-112.77	582.61	1040.1	-53.295	601.47	35.829	-42.296	689.05	69.273	-7.1375	872.93	33.779	-58.018	578.79	1040.3	15.546	683.08	133.9	102.43	666.83	59.941	-89.911	734	1257.1	213.32	807.5	678.69	-123.97	862.35	1658.3	-68.333	780.17	847.43	216.21	643.64	1378.2	123.96	688.88	1608.1	38.294	746.97	670.24	-164.27	726.46	495.46	-4.4064	775.34	386.34	-43.78	766.99	799.04	262.34	742.93	760.97	-183.99	732.88	205.99	-39.494	880.31	704.27	110.37	753.28	296.38	-40.672	820.89	30.102	-34.521	655.42	1098.8	255.08	778.61	764.48	189.06	823.59	677.37	150.46	829.07	318.28	44.771	863.01	1656.6	6.6881	769.53	1002.1	133.8	773.4	1435.1	125.32	701.58	819.54	229.5	591.55	1225	-20.998	876.17	404.87	48.506
784	3.92	785.57	815.83	-308.69	874.21	546.92	129.2	691.81	1614.7	-99.088	861.26	590.06	131.8	663.96	1482.4	-31.857	859.05	515.05	1.3836	886.63	67.536	103.25	693.26	1081.4	-310.53	826.65	322.62	121.48	841.2	58.15	61.901	800.21	64.21	132.73	795.85	238.73	48.057	782.16	22.58	-118.01	859.79	809.67	-300.16	732.5	1217.4	-273.19	723.77	943.77	-314.3	641.59	98.49	40.616	755.73	1421.6	-200.08	731.2	123.24	25.662	687.27	939.63	259.57	777.33	1036.4	-171.59	742.81	514.01	-131.27	752.22	577.56	-141.73	752.12	294.24	-112.81	587.3	1040.2	-53.263	601.51	35.821	-42.218	689.08	69.234	-7.0698	873.03	33.6	-58.146	583.62	1040.4	15.585	699.52	129.4	101.98	666.85	59.95	-89.864	738.33	1257.3	213	810.32	678.22	-123.79	866.92	1658.4	-68.554	784.26	847.59	215.77	648.2	1378.3	123.65	693.39	1608.2	37.962	749.93	670.12	-164.36	727.85	495.38	-4.5274	776.51	386	-43.848	770.94	799.15	261.82	746.51	760.89	-184.06	733.38	205.8	-39.471	885.81	705.05	109.87	754.13	296.09	-40.687	820.89	30.118	-34.568	659.55	1099	254.62	785.09	764.38	187.46	829.35	677.94	150.3	840.56	317.61	44.537	867.53	1656.7	6.4697	774.51	1002.1	133.64	777.96	1435.3	125.07	705.62	819.73	228.84	596.26	1225	-21.113	885.3	405.47	48.275
